<?xml version="1.0" encoding="UTF-8" standalone="no"?>
<!-- Generator: Adobe Illustrator 19.1.0, SVG Export Plug-In . SVG Version: 6.00 Build 0)  -->

<svg
   xmlns:dc="http://purl.org/dc/elements/1.1/"
   xmlns:cc="http://creativecommons.org/ns#"
   xmlns:rdf="http://www.w3.org/1999/02/22-rdf-syntax-ns#"
   xmlns:svg="http://www.w3.org/2000/svg"
   xmlns="http://www.w3.org/2000/svg"
   xmlns:sodipodi="http://sodipodi.sourceforge.net/DTD/sodipodi-0.dtd"
   xmlns:inkscape="http://www.inkscape.org/namespaces/inkscape"
   version="1.1"
   id="DESIGNS"
   x="0px"
   y="0px"
   width="32px"
   height="32px"
   viewBox="0 0 32 32"
   xml:space="preserve"
   sodipodi:docname="icon.svg"
   style="enable-background:new 0 0 32 32;"
   inkscape:version="0.92.3 (2405546, 2018-03-11)"><defs
   id="defs21" /><sodipodi:namedview
   pagecolor="#ffffff"
   bordercolor="#666666"
   borderopacity="1"
   objecttolerance="10"
   gridtolerance="10"
   guidetolerance="10"
   inkscape:pageopacity="0"
   inkscape:pageshadow="2"
   inkscape:window-width="2560"
   inkscape:window-height="1399"
   id="namedview19"
   showgrid="false"
   inkscape:zoom="14.75"
   inkscape:cx="11.864143"
   inkscape:cy="11.680407"
   inkscape:window-x="0"
   inkscape:window-y="41"
   inkscape:window-maximized="0"
   inkscape:current-layer="layer1" />
<title
   property="dc:title"
   id="title2">to announce</title><desc
   property="dc:description"
   id="desc4">An icon for &quot;announce&quot; from the Avocado series on to [icon]. Downloaded from http://www.toicon.com/icons/avocado_announce by 185.238.128.235 on 2021-04-14. Licensed CC-BY, see http://toicon.com/license/ for details.</desc>

<metadata
   id="metadata16"><work
     rdf:about=""><format>image/svg+xml</format><type
       rdf:resource="http://purl.org/dc/dcmitype/StillImage" /><license
       rdf:resource="http://creativecommons.org/licenses/by/4.0/" /><attributionname>Shannon E Thomas</attributionname><attributionurl>http://www.toicon.com/icons/avocado_announce</attributionurl></work><rdf:RDF><cc:Work
       rdf:about=""><dc:format>image/svg+xml</dc:format><dc:type
         rdf:resource="http://purl.org/dc/dcmitype/StillImage" /><dc:title>to announce</dc:title></cc:Work></rdf:RDF></metadata><g
   inkscape:groupmode="layer"
   id="layer2"
   inkscape:label="Layer 2"
   style="display:inline" /><g
   inkscape:groupmode="layer"
   id="layer1"
   inkscape:label="Layer 1"
   style="display:inline"><g
     id="g901"
     transform="matrix(0.98538626,0,0,0.99788589,0,0.06765147)"><rect
       ry="0"
       y="-0.0677948"
       x="0"
       height="32.067795"
       width="32.474575"
       id="rect892"
       style="display:inline;opacity:1;vector-effect:none;fill:#3465a4;fill-opacity:1;stroke:none;stroke-width:0.75590551;stroke-linecap:butt;stroke-linejoin:miter;stroke-miterlimit:4;stroke-dasharray:none;stroke-dashoffset:0;stroke-opacity:1" /><g
       id="g14"><path
         id="path6"
         style="fill:#fffaee"
         d="m 29.5,3.738 v 22.523 l -19,-7.6 V 11.338 Z M 2.5,11.5 v 7 h 2 v -7 z"
         class="avocado_zes"
         inkscape:connector-curvature="0" /><g
         id="g10"><polygon
           id="polygon8"
           style="fill:#d1712a"
           points="4.5,10.5 4.5,19.5 5.5,19.5 5.5,24.5 14.5,24.5 14.5,20.262 12.5,19.462 12.5,22.5 7.5,22.5 7.5,19.5 10.5,19.5 10.5,10.5 "
           class="avocado_achttien" /></g><path
         id="path12"
         style="fill:#231f20"
         d="M 30,3 11,10.6 V 10 H 4 v 1 H 2 v 8 h 2 v 1 h 1 v 5 h 10 v -4 l 15,6 z M 3,18 v -6 h 1 v 6 z m 2,-7 h 5 v 8 H 5 Z m 3,9 h 3 v -0.6 l 1,0.4 V 22 H 8 Z m 6,4 H 6 v -4 h 1 v 3 h 6 v -2.8 l 1,0.4 z m 15,1.523 -18,-7.2 v -6.646 l 18,-7.2 z"
         class="avocado_een"
         inkscape:connector-curvature="0" /></g></g></g></svg>